<?xml version="1.0" encoding="UTF-8"?><svg id="Layer_1" xmlns="http://www.w3.org/2000/svg" viewBox="0 0 412.98 401.97"><defs><style>.cls-1{fill:#00c4f2;}</style></defs><path class="cls-1" d="M0,256.77c.73.13.46-.37.48-.83,2.11-54.12,53.41-92.44,106.12-78.78,3.41.88,6.73,2.07,10.03,3.29-.37-11.22.33-22.05,3.54-32.82,12.96-43.56,58.59-69.37,102.87-57.64,3.3.87,6.46,2.17,9.74,3.1.49-.52.14-12.41.24-14.28,2.68-49.97,50.47-86.06,99.39-77.57,39.89,6.92,70.33,42.74,69.79,83.44h-53.03c.12-13.23-8.59-25.42-20.99-29.76-19.79-6.93-40.21,6.65-42.12,27.25v89.64h-53.27c.41-13.89-9.62-26.66-22.85-30.3-20.24-5.58-39.6,9.24-40.26,29.95v87.48h-53.03c-.24-20.96-20.02-35.88-40.37-30.17-12.51,3.51-22,15.37-22.76,28.36-1.17,20.23.91,41.59,0,61.94,1.53,24.22,28.86,38.11,49.28,24.3,10.27-6.94,14.89-18.67,13.84-30.92h-10.8l37.31-37.45,37.31,37.45h-10.8c-.48,9.01,1.53,18.11,7.45,25.07,19.53,22.96,56.23,8.45,55.91-21.1v-91.33s-10.81,0-10.81,0l37.31-37.44,37.31,37.44h-10.8v94.21c3.77,39.03,59.3,39.01,63.12,0v-181.33h-10.81l37.52-37.42,37.11,37.42h-10.8v184.69c-3.06,42.97-36.82,76.44-79.81,79.06l-.58.25h-8.4l-8.72-1c-13.98-2.13-27.63-8.03-38.77-16.66-2.2-1.71-4.23-3.63-6.43-5.34-2.04,1.51-3.86,3.3-5.86,4.86-11.9,9.28-25.9,15.33-40.92,17.39l-7.28.75h-8.16l-7.28-.75c-14.38-2.01-28.19-7.68-39.72-16.43-2.45-1.86-4.68-3.98-7.1-5.86-.32,0-3.27,2.89-3.85,3.36-11.81,9.73-26.1,16.38-41.31,18.69l-8.72,1h-8.4l-8.72-1C32.92,395,3.21,362.17.48,322.64c-.07-.98.38-2.64-.48-3.24v-62.64Z"/></svg>